<svg width="331" height="399" viewBox="0 0 331 399" fill="none" xmlns="http://www.w3.org/2000/svg">
<path d="M20.2641 389.437C22.9925 392.162 27.0453 393.074 30.6784 391.781C34.3114 390.488 36.8765 387.221 37.2699 383.384L39.4509 362.084L60.7578 359.899C65.47 359.415 69.1953 355.69 69.6797 350.977L71.8649 329.67L93.1746 327.483C97.8878 326.999 101.614 323.272 102.098 318.559L105.116 289.156C105.48 285.604 103.922 282.127 101.028 280.035C98.1344 277.943 94.3443 277.554 91.0857 279.015C87.8272 280.475 85.5951 283.562 85.2305 287.115L83.0356 308.431L61.719 310.626C57.0068 311.11 53.2815 314.836 52.7971 319.548L50.6119 340.855L29.305 343.04C24.5914 343.523 20.8649 347.25 20.3817 351.963L17.3736 381.357C17.0702 384.348 18.1323 387.317 20.2641 389.437Z" fill="url(#paint0_linear_2002_277)"/>
<path d="M188.889 49.9935C187.38 50.694 185.653 50.7666 184.09 50.1943C182.527 49.6219 181.256 48.452 180.555 46.942C176.763 38.7676 167.062 35.2155 158.887 39.0082C150.713 42.8009 147.16 52.5021 150.953 60.6765C152.412 63.8206 151.046 67.5518 147.902 69.0105C144.758 70.4692 141.026 69.1031 139.568 65.959C132.858 51.4966 139.142 34.3328 153.605 27.6227C168.067 20.9126 185.231 27.1971 191.941 41.6595C192.641 43.1694 192.714 44.8956 192.142 46.4587C191.569 48.0217 190.399 49.293 188.889 49.9935Z" fill="url(#paint1_linear_2002_277)"/>
<path d="M283.087 381.595C279.993 380.468 278.382 377.061 279.475 373.955L293.827 333.149C294.929 330.02 298.358 328.375 301.488 329.475L342.294 343.827C344.587 344.633 346.168 346.741 346.3 349.167C346.433 351.594 345.09 353.861 342.899 354.912L287.74 381.367C286.283 382.065 284.606 382.147 283.087 381.595ZM303.17 342.804L295.624 364.26L324.627 350.351L303.17 342.804Z" fill="url(#paint2_linear_2002_277)"/>
<defs>
<linearGradient id="paint0_linear_2002_277" x1="109.046" y1="287.873" x2="134.184" y2="356.837" gradientUnits="userSpaceOnUse">
<stop offset="0.107536" stop-color="#BB9A65"/>
<stop offset="0.906868" stop-color="#BB9A65" stop-opacity="0"/>
</linearGradient>
<linearGradient id="paint1_linear_2002_277" x1="130.9" y1="66.9961" x2="224.951" y2="13.36" gradientUnits="userSpaceOnUse">
<stop offset="0.107536" stop-color="#BB9A65"/>
<stop offset="0.906868" stop-color="#BB9A65" stop-opacity="0"/>
</linearGradient>
<linearGradient id="paint2_linear_2002_277" x1="287" y1="380.5" x2="370.391" y2="309.246" gradientUnits="userSpaceOnUse">
<stop offset="0.107536" stop-color="#BB9A65"/>
<stop offset="0.906868" stop-color="#BB9A65" stop-opacity="0"/>
</linearGradient>
</defs>
</svg>
