<svg width="391" height="343" viewBox="0 0 391 343" fill="none" xmlns="http://www.w3.org/2000/svg">
<path d="M53.7839 266.606C52.3365 264.806 52.0537 262.334 53.0571 260.254C54.0606 258.174 56.1712 256.856 58.4808 256.869L71.3041 256.939L73.975 244.393C74.5663 241.618 77.024 239.639 79.8611 239.654L92.6888 239.722L95.3615 227.174C95.9526 224.398 98.4109 222.419 101.248 222.434L118.951 222.527C121.089 222.538 123.059 223.69 124.119 225.547C125.179 227.405 125.167 229.687 124.088 231.533C123.009 233.38 121.027 234.51 118.888 234.499L106.054 234.436L103.377 246.988C102.785 249.762 100.328 251.741 97.4905 251.727L84.6627 251.658L81.9919 264.205C81.4012 266.981 78.9427 268.96 76.1049 268.945L58.4091 268.846C56.6085 268.835 54.9092 268.012 53.7839 266.606Z" fill="url(#paint0_linear_2003_275)"/>
<path d="M279.378 314.077C274.103 312.157 271.357 306.349 273.22 301.053L297.688 231.483C299.566 226.148 305.413 223.344 310.749 225.22L380.319 249.687C384.227 251.062 386.923 254.656 387.149 258.793C387.374 262.93 385.085 266.795 381.35 268.587L287.311 313.688C284.827 314.88 281.967 315.02 279.378 314.077ZM313.617 247.944L300.753 284.524L350.198 260.811L313.617 247.944Z" fill="url(#paint1_linear_2003_275)"/>
<path d="M58.0646 4.12293C56.1865 5.21634 54.8192 7.01058 54.2643 9.11186C53.7094 11.2132 54.0122 13.4488 55.106 15.3266C61.0258 25.4947 57.5819 38.5363 47.4138 44.4561C37.2458 50.3759 24.2041 46.932 18.2844 36.7639C16.0075 32.8531 10.9915 31.5285 7.0807 33.8054C3.16993 36.0822 1.84532 41.0982 4.12217 45.009C14.5956 62.9986 37.6694 69.0917 55.659 58.6183C73.6485 48.1449 79.7416 25.071 69.2682 7.08147C68.1748 5.20339 66.3806 3.83611 64.2793 3.28123C62.178 2.72635 59.9426 3.02953 58.0646 4.12293Z" fill="url(#paint2_linear_2003_275)"/>
<defs>
<linearGradient id="paint0_linear_2003_275" x1="119.967" y1="220.269" x2="80.5183" y2="200.868" gradientUnits="userSpaceOnUse">
<stop offset="0.107536" stop-color="#BB9A65"/>
<stop offset="0.906868" stop-color="#BB9A65" stop-opacity="0"/>
</linearGradient>
<linearGradient id="paint1_linear_2003_275" x1="286.049" y1="312.211" x2="428.221" y2="190.731" gradientUnits="userSpaceOnUse">
<stop offset="0.107536" stop-color="#BB9A65"/>
<stop offset="0.906868" stop-color="#BB9A65" stop-opacity="0"/>
</linearGradient>
<linearGradient id="paint2_linear_2003_275" x1="-3.46402" y1="53.516" x2="124.232" y2="-7.12412" gradientUnits="userSpaceOnUse">
<stop offset="0.107536" stop-color="#BB9A65"/>
<stop offset="0.906868" stop-color="#BB9A65" stop-opacity="0"/>
</linearGradient>
</defs>
</svg>
