<svg width="459" height="416" viewBox="0 0 459 416" fill="none" xmlns="http://www.w3.org/2000/svg">
<path d="M70.2048 341.129C69.084 336.088 72.0903 331.116 76.9444 329.98L140.715 315.045C145.607 313.902 150.53 317.081 151.713 322.148L167.133 388.216C167.999 391.928 166.621 395.78 163.643 397.975C160.664 400.171 156.671 400.277 153.525 398.246L74.3359 347.111C72.2436 345.76 70.755 343.604 70.2048 341.129ZM136.141 335.474L102.611 343.328L144.248 370.215L136.141 335.474Z" fill="url(#paint0_linear_2002_275)"/>
<path d="M155.95 135.368C153.801 139.36 149.522 141.808 144.954 141.659C140.387 141.509 136.345 138.789 134.569 134.668L124.711 111.786L99.7934 116.903C94.2824 118.033 88.7666 115.215 86.5835 110.153L76.718 87.2655L51.7967 92.38C46.2847 93.5112 40.7677 90.6925 38.5848 85.6297L24.968 54.0457C23.323 50.2301 23.8841 45.8175 26.4401 42.4699C28.9962 39.1223 33.1588 37.3484 37.36 37.8165C41.5611 38.2846 45.1626 40.9232 46.8077 44.7389L56.6875 67.634L81.619 62.5248C87.1301 61.3944 92.6459 64.2125 94.8289 69.274L104.694 92.1618L129.612 87.0452C135.124 85.9131 140.641 88.7321 142.824 93.7955L156.426 125.372C157.807 128.587 157.632 132.259 155.95 135.368Z" fill="url(#paint1_linear_2002_275)"/>
<path d="M399.529 170.073C397.798 172.637 397.126 175.763 397.664 178.766C398.202 181.769 399.904 184.401 402.396 186.084C415.887 195.195 419.224 213.832 409.85 227.711C400.476 241.59 381.941 245.454 368.451 236.342C363.262 232.838 356.133 234.324 352.528 239.662C348.923 245 350.206 252.168 355.395 255.672C379.263 271.793 412.056 264.956 428.64 240.402C445.224 215.848 439.32 182.874 415.452 166.754C412.96 165.071 409.883 164.474 406.897 165.097C403.91 165.719 401.26 167.51 399.529 170.073Z" fill="url(#paint2_linear_2002_275)"/>
<defs>
<linearGradient id="paint0_linear_2002_275" x1="74.8274" y1="345.408" x2="235.728" y2="391.837" gradientUnits="userSpaceOnUse">
<stop offset="0.107536" stop-color="#BB9A65"/>
<stop offset="0.906868" stop-color="#BB9A65" stop-opacity="0"/>
</linearGradient>
<linearGradient id="paint1_linear_2002_275" x1="20.0665" y1="54.0129" x2="16.6218" y2="139.543" gradientUnits="userSpaceOnUse">
<stop offset="0.107536" stop-color="#BB9A65"/>
<stop offset="0.906868" stop-color="#BB9A65" stop-opacity="0"/>
</linearGradient>
<linearGradient id="paint2_linear_2002_275" x1="350.815" y1="271.192" x2="477.362" y2="114.801" gradientUnits="userSpaceOnUse">
<stop offset="0.107536" stop-color="#BB9A65"/>
<stop offset="0.906868" stop-color="#BB9A65" stop-opacity="0"/>
</linearGradient>
</defs>
</svg>
