<svg width="767" height="834" viewBox="0 0 767 834" fill="none" xmlns="http://www.w3.org/2000/svg">
<path opacity="0.6" d="M874.625 795.741C866.961 810.343 851.58 819.233 835.102 818.586C818.624 817.938 803.989 807.869 797.494 792.71L761.444 708.544L671.684 726.78C651.832 730.808 631.877 720.349 623.894 701.731L587.818 617.542L498.044 635.77C478.188 639.802 458.229 629.341 450.246 610.718L400.453 494.541C394.438 480.505 396.366 464.328 405.513 452.1C414.66 439.873 429.635 433.454 444.798 435.262C459.96 437.07 473.007 446.829 479.023 460.864L515.15 545.081L604.962 526.872C624.814 522.844 644.769 533.302 652.752 551.92L688.828 636.11L778.587 617.874C798.444 613.839 818.405 624.301 826.385 642.926L876.126 759.076C881.177 770.9 880.625 784.37 874.625 795.741Z" fill="url(#paint0_linear_3_3)"/>
<path opacity="0.4" d="M58.4279 180.189C49.9422 182.655 41.0538 177.828 38.4975 169.37L4.90002 58.2449C2.3263 49.7213 7.14628 40.724 15.6685 38.1454L126.793 4.54797C133.036 2.66076 139.802 4.71962 143.935 9.76527C148.068 14.8109 148.754 21.8495 145.673 27.5982L68.1447 172.32C66.0965 176.143 62.5934 178.979 58.4279 180.189ZM40.4385 64.3466L58.1055 122.775L98.8707 46.6818L40.4385 64.3466Z" fill="url(#paint1_linear_3_3)"/>
<defs>
<linearGradient id="paint0_linear_3_3" x1="382.774" y1="494.315" x2="368.057" y2="807.862" gradientUnits="userSpaceOnUse">
<stop offset="0.107536" stop-color="#BB9A65"/>
<stop offset="0.906868" stop-color="#BB9A65" stop-opacity="0"/>
</linearGradient>
<linearGradient id="paint1_linear_3_3" x1="65.1677" y1="171.617" x2="132.833" y2="-114.88" gradientUnits="userSpaceOnUse">
<stop offset="0.107536" stop-color="#BB9A65"/>
<stop offset="0.906868" stop-color="#BB9A65" stop-opacity="0"/>
</linearGradient>
</defs>
</svg>
