<svg width="1468" height="871" viewBox="0 0 1468 871" fill="none" xmlns="http://www.w3.org/2000/svg">
<path opacity="0.5" d="M99.564 27.0373C96.3436 34.2086 96.1016 42.365 98.8954 49.7134C101.689 57.0618 107.288 62.9988 114.46 66.2175C153.286 83.6528 170.626 129.261 153.191 168.086C135.755 206.912 90.1476 224.252 51.322 206.817C36.3891 200.111 18.8476 206.78 12.1418 221.713C5.43597 236.646 12.1051 254.187 27.0381 260.893C95.729 291.74 176.42 261.061 207.267 192.37C238.114 123.679 207.435 42.9878 138.744 12.1411C131.573 8.92071 123.417 8.67864 116.068 11.4725C108.72 14.2664 102.784 19.8661 99.564 27.0373Z" fill="url(#paint0_linear_7_6)"/>
<path d="M1463.68 821.527C1465.78 828.176 1462.13 835.276 1455.51 837.447L1368.46 865.984C1361.79 868.17 1354.6 864.533 1352.41 857.858L1323.87 770.815C1322.27 765.925 1323.77 760.55 1327.68 757.198C1331.58 753.845 1337.12 753.175 1341.71 755.5L1457.29 814.007C1460.34 815.552 1462.65 818.264 1463.68 821.527ZM1372.63 837.839L1418.39 822.833L1357.62 792.069L1372.63 837.839Z" fill="url(#paint1_linear_7_6)"/>
<defs>
<linearGradient id="paint0_linear_7_6" x1="22.6451" y1="301.889" x2="270.469" y2="-145.401" gradientUnits="userSpaceOnUse">
<stop offset="0.107536" stop-color="#BB9A65"/>
<stop offset="0.906868" stop-color="#BB9A65" stop-opacity="0"/>
</linearGradient>
<linearGradient id="paint1_linear_7_6" x1="1456.79" y1="816.368" x2="1229.56" y2="768.237" gradientUnits="userSpaceOnUse">
<stop offset="0.107536" stop-color="#BB9A65"/>
<stop offset="0.906868" stop-color="#BB9A65" stop-opacity="0"/>
</linearGradient>
</defs>
</svg>
