<svg width="370" height="385" viewBox="0 0 370 385" fill="none" xmlns="http://www.w3.org/2000/svg">
<path opacity="0.6" d="M477.625 361.741C469.961 376.343 454.58 385.233 438.102 384.586C421.624 383.938 406.989 373.869 400.494 358.71L364.444 274.544L274.684 292.78C254.832 296.808 234.877 286.349 226.894 267.731L190.818 183.542L101.044 201.77C81.1877 205.802 61.2286 195.341 53.2462 176.718L3.45322 60.5407C-2.56235 46.5054 -0.633764 30.3276 8.51313 18.1002C17.66 5.87282 32.6353 -0.54607 47.7978 1.26196C62.9602 3.06991 76.007 12.8289 82.0226 26.8642L118.15 111.081L207.962 92.8723C227.814 88.8436 247.769 99.3023 255.752 117.92L291.828 202.11L381.587 183.874C401.444 179.839 421.405 190.301 429.385 208.926L479.126 325.076C484.177 336.9 483.625 350.37 477.625 361.741Z" fill="url(#paint0_linear_980_188)"/>
<defs>
<linearGradient id="paint0_linear_980_188" x1="-14.2261" y1="60.3147" x2="-28.943" y2="373.862" gradientUnits="userSpaceOnUse">
<stop offset="0.107536" stop-color="#BB9A65"/>
<stop offset="0.906868" stop-color="#BB9A65" stop-opacity="0"/>
</linearGradient>
</defs>
</svg>
