<svg width="211" height="264" viewBox="0 0 211 264" fill="none" xmlns="http://www.w3.org/2000/svg">
<path opacity="0.5" d="M90.564 18.0373C87.3436 25.2086 87.1016 33.365 89.8954 40.7134C92.6893 48.0618 98.2883 53.9988 105.46 57.2175C144.286 74.6528 161.626 120.261 144.191 159.086C126.755 197.912 81.1476 215.252 42.322 197.817C27.3891 191.111 9.8476 197.78 3.14178 212.713C-3.56403 227.646 3.10512 245.187 18.0381 251.893C86.729 282.74 167.42 252.061 198.267 183.37C229.114 114.679 198.435 33.9878 129.744 3.14106C122.573 -0.0792925 114.417 -0.321358 107.068 2.4725C99.7197 5.26637 93.7843 10.8661 90.564 18.0373Z" fill="url(#paint0_linear_980_440)"/>
<defs>
<linearGradient id="paint0_linear_980_440" x1="13.6451" y1="292.889" x2="261.469" y2="-154.401" gradientUnits="userSpaceOnUse">
<stop offset="0.107536" stop-color="#BB9A65"/>
<stop offset="0.906868" stop-color="#BB9A65" stop-opacity="0"/>
</linearGradient>
</defs>
</svg>
