<svg width="75" height="77" viewBox="0 0 75 77" fill="none" xmlns="http://www.w3.org/2000/svg">
<path d="M73.2925 32.0093L59.4288 7.47741C58.3089 5.49056 56.1955 4.25669 53.9112 4.25669C51.627 4.25669 49.5199 5.49056 48.3936 7.47741L46.1726 11.4005C45.1033 10.8816 43.996 10.445 42.857 10.097V7.54069C42.857 3.6619 39.7185 0.523438 35.8397 0.523438C31.961 0.523438 28.8225 3.67455 28.8225 7.54069V10.0907C19.1477 13.0899 12.0988 22.1257 12.0988 32.775V48.5242C12.0988 52.074 10.3397 55.4466 7.31517 57.4651C5.82819 58.4585 4.92969 60.1289 4.92969 61.9196C4.92969 64.8683 7.32782 67.2728 10.2828 67.2728H24.235C25.2221 72.7841 30.05 76.9792 35.8461 76.9792C41.6421 76.9792 46.4637 72.7841 47.4571 67.2728H61.4094C64.358 67.2728 66.7625 64.8746 66.7625 61.9196C66.7625 60.1289 65.8703 58.4585 64.377 57.4651C61.3841 55.4656 59.5934 52.1246 59.5934 48.5242V40.9881H68.0533C71.3753 40.9881 74.0771 38.2863 74.0771 34.9643C74.0771 33.9266 73.805 32.9078 73.2988 32.003L73.2925 32.0093ZM33.3024 7.54702C33.3024 6.14863 34.4414 5.00967 35.8397 5.00967C37.2381 5.00967 38.3771 6.1423 38.3771 7.54702V9.17952C36.6876 8.99602 34.9855 8.99602 33.3024 9.17952V7.55333V7.54702ZM35.8397 72.5056C32.5304 72.5056 29.7273 70.2973 28.8288 67.2791H42.8507C41.9458 70.2973 39.1491 72.5056 35.8397 72.5056ZM61.8839 61.1983C62.1244 61.3628 62.2699 61.6349 62.2699 61.926C62.2699 62.4069 61.8776 62.7992 61.3967 62.7992H10.2765C9.61206 62.7992 9.20077 62.0841 9.50449 61.5147C9.5741 61.3881 9.66902 61.2805 9.78924 61.1983C14.0097 58.3889 16.5724 53.6369 16.5724 48.5306V32.7813C16.5724 22.1573 25.2158 13.5202 35.8334 13.5202C38.6429 13.5202 41.4143 14.134 43.958 15.3172L34.5236 32.0093C34.0111 32.9141 33.7453 33.9329 33.7453 34.9706C33.7453 38.2926 36.4472 40.9944 39.7692 40.9944H55.1008V48.5306C55.1008 53.6306 57.6382 58.3699 61.8839 61.1983ZM68.047 36.5145H39.7755C38.5922 36.5145 37.8519 35.2364 38.434 34.2113L52.2977 9.6794C53.0064 8.42655 54.8161 8.42655 55.5248 9.6794L69.3884 34.2113C69.9642 35.2364 69.2239 36.5145 68.047 36.5145Z" fill="url(#paint0_linear_980_205)"/>
<path d="M53.9118 25.4668C55.152 25.4668 56.1518 24.467 56.1518 23.2268V17.2536C56.1518 16.0198 55.152 15.0137 53.9118 15.0137C52.6716 15.0137 51.6719 16.0198 51.6719 17.2536V23.2268C51.6719 24.467 52.6716 25.4668 53.9118 25.4668Z" fill="url(#paint1_linear_980_205)"/>
<path d="M53.9118 32.6361C55.1489 32.6361 56.1518 31.6333 56.1518 30.3962C56.1518 29.1591 55.1489 28.1562 53.9118 28.1562C52.6747 28.1562 51.6719 29.1591 51.6719 30.3962C51.6719 31.6333 52.6747 32.6361 53.9118 32.6361Z" fill="url(#paint2_linear_980_205)"/>
<path d="M14.1866 10.2363C10.9722 10.2363 8.36523 12.8496 8.36523 16.0577C8.36523 17.2979 9.36499 18.2976 10.6052 18.2976C11.8454 18.2976 12.8451 17.2979 12.8451 16.0577C12.8451 15.3173 13.4462 14.7162 14.1866 14.7162C15.4268 14.7162 16.4265 13.7165 16.4265 12.4763C16.4265 11.2361 15.4268 10.2363 14.1866 10.2363Z" fill="url(#paint3_linear_980_205)"/>
<path d="M14.1864 6.35687C15.4266 6.35687 16.4263 5.35078 16.4263 4.11691C16.4263 2.88304 15.4266 1.87695 14.1864 1.87695C6.3655 1.87695 0 8.24248 0 16.0633C0 17.3035 1.00609 18.3033 2.23996 18.3033C3.47383 18.3033 4.4799 17.3035 4.4799 16.0633C4.4799 10.7102 8.83325 6.35687 14.1864 6.35687Z" fill="url(#paint4_linear_980_205)"/>
<defs>
<linearGradient id="paint0_linear_980_205" x1="38.9734" y1="0.523439" x2="-6.99151" y2="67.9495" gradientUnits="userSpaceOnUse">
<stop offset="0.107536" stop-color="#BB9A65"/>
<stop offset="0.906868" stop-color="#F8F1E6"/>
</linearGradient>
<linearGradient id="paint1_linear_980_205" x1="53.8775" y1="15.0137" x2="47.5493" y2="19.4125" gradientUnits="userSpaceOnUse">
<stop offset="0.107536" stop-color="#BB9A65"/>
<stop offset="0.906868" stop-color="#F8F1E6"/>
</linearGradient>
<linearGradient id="paint2_linear_980_205" x1="53.8775" y1="28.1563" x2="51.2923" y2="32.3492" gradientUnits="userSpaceOnUse">
<stop offset="0.107536" stop-color="#BB9A65"/>
<stop offset="0.906868" stop-color="#F8F1E6"/>
</linearGradient>
<linearGradient id="paint3_linear_980_205" x1="12.3341" y1="10.2363" x2="7.68226" y2="17.7813" gradientUnits="userSpaceOnUse">
<stop offset="0.107536" stop-color="#BB9A65"/>
<stop offset="0.906868" stop-color="#F8F1E6"/>
</linearGradient>
<linearGradient id="paint4_linear_980_205" x1="8.08725" y1="1.87695" x2="-1.3917" y2="17.2513" gradientUnits="userSpaceOnUse">
<stop offset="0.107536" stop-color="#BB9A65"/>
<stop offset="0.906868" stop-color="#F8F1E6"/>
</linearGradient>
</defs>
</svg>
