<svg width="82" height="82" viewBox="0 0 82 82" fill="none" xmlns="http://www.w3.org/2000/svg">
<path d="M40.9325 72.0455C50.9933 72.0455 68.027 70.0713 68.027 62.668C68.027 56.5746 56.6438 54.4549 49.6202 53.7272C56.4603 42.0529 63.2371 28.8283 63.2371 22.2983C63.2371 10.0038 53.2332 0 40.9325 0C28.6317 0 18.6279 10.0038 18.6279 22.2983C18.6279 28.8346 25.4046 42.0529 32.2447 53.7272C25.2211 54.4549 13.8379 56.5683 13.8379 62.668C13.8379 70.0713 30.8653 72.0455 40.9325 72.0455ZM23.4304 22.2983C23.4304 12.6488 31.2829 4.79625 40.9325 4.79625C50.582 4.79625 58.4344 12.6488 58.4344 22.2983C58.4344 27.2527 52.3031 40.2495 42.0271 57.0618C41.6854 57.6187 41.1476 57.6756 40.9325 57.6756C40.7173 57.6756 40.1731 57.6187 39.8378 57.0618C29.5618 40.2495 23.4304 27.2527 23.4304 22.2983ZM34.9782 58.3083C35.2313 58.7323 35.4908 59.1499 35.7439 59.5612C36.8575 61.3836 38.8001 62.4719 40.9325 62.4719C43.0648 62.4719 45.0074 61.3836 46.1211 59.5612C46.3742 59.1499 46.6272 58.726 46.8867 58.3083C57.074 59.0423 62.4841 61.4468 63.1928 62.668C62.269 64.3195 54.1127 67.2428 40.9325 67.2428C27.7522 67.2428 19.596 64.3195 18.6721 62.668C19.3808 61.4468 24.7909 59.0423 34.9782 58.3083Z" fill="url(#paint0_linear_980_196)"/>
<path d="M74.8929 57.4089C73.7349 56.7698 72.2732 57.1938 71.6342 58.358C70.9951 59.5223 71.419 60.9777 72.5833 61.6167C75.4433 63.186 77.0822 64.926 77.0822 66.394C77.0822 70.8613 63.3324 77.0939 40.9393 77.0939C18.5461 77.0939 4.79629 70.8613 4.79629 66.394C4.79629 64.9324 6.43512 63.1923 9.29517 61.6167C10.4531 60.9777 10.8834 59.5223 10.2443 58.358C9.60522 57.1938 8.14987 56.7698 6.9856 57.4089C1.21488 60.579 0 64.0402 0 66.3877C0 76.4548 21.096 81.8839 40.9455 81.8839C60.7951 81.8839 81.8911 76.4548 81.8911 66.3877C81.8911 64.0402 80.6763 60.579 74.9055 57.4089H74.8929Z" fill="url(#paint1_linear_980_196)"/>
<path d="M49.8991 20.7669C49.8991 15.8251 45.8811 11.8008 40.933 11.8008C35.9848 11.8008 31.9668 15.8188 31.9668 20.7669C31.9668 25.7151 35.9848 29.7331 40.933 29.7331C45.8811 29.7331 49.8991 25.7151 49.8991 20.7669ZM36.7694 20.7669C36.7694 18.47 38.6361 16.6034 40.933 16.6034C43.2299 16.6034 45.0965 18.47 45.0965 20.7669C45.0965 23.0638 43.2299 24.9304 40.933 24.9304C38.6361 24.9304 36.7694 23.0638 36.7694 20.7669Z" fill="url(#paint2_linear_980_196)"/>
<defs>
<linearGradient id="paint0_linear_980_196" x1="40.5171" y1="1.78828e-06" x2="-5.11012" y2="55.6628" gradientUnits="userSpaceOnUse">
<stop offset="0.107536" stop-color="#BB9A65"/>
<stop offset="0.906868" stop-color="#F8F1E6"/>
</linearGradient>
<linearGradient id="paint1_linear_980_196" x1="40.3179" y1="57.1113" x2="34.5503" y2="88.0352" gradientUnits="userSpaceOnUse">
<stop offset="0.107536" stop-color="#BB9A65"/>
<stop offset="0.906868" stop-color="#F8F1E6"/>
</linearGradient>
<linearGradient id="paint2_linear_980_196" x1="40.7955" y1="11.8008" x2="30.4475" y2="28.5846" gradientUnits="userSpaceOnUse">
<stop offset="0.107536" stop-color="#BB9A65"/>
<stop offset="0.906868" stop-color="#F8F1E6"/>
</linearGradient>
</defs>
</svg>
