<svg width="91" height="67" viewBox="0 0 91 67" fill="none" xmlns="http://www.w3.org/2000/svg">
<path d="M90.6596 36.2173C90.6469 36.0971 90.6153 35.9769 90.5583 35.863C89.432 33.642 82.2376 32.2246 77.8399 31.826C79.175 21.607 76.0746 13.0458 74.9989 11.8119C74.8723 11.6727 74.7331 11.5525 74.6129 11.4892C73.1386 10.5338 65.5392 12.3751 58.8636 16.3361C56.1111 9.97062 51.7578 4.42136 46.2149 0.226197C46.1136 0.150266 45.9934 0.0933313 45.8668 0.0616936C45.5188 -0.0205645 45.1518 -0.0205645 44.7975 0.0616936C44.6709 0.0933313 44.5507 0.150266 44.4494 0.226197C38.9192 4.42136 34.5722 9.97062 31.826 16.3361C25.2264 12.432 17.5004 10.5464 16.121 11.4639C15.9565 11.5588 15.8173 11.6727 15.6908 11.8119C14.8682 12.8117 11.4956 21.1071 12.9066 31.8323C9.29992 32.1803 2.19407 33.3762 0.435014 35.5023C0.194568 35.6541 0.0300559 35.9136 0.00474566 36.2173C-0.00158189 36.2932 -0.00158189 36.3692 0.00474566 36.4451C0.00474566 36.54 0.00475184 36.6412 0.0110794 36.7488C1.23862 47.3475 7.47759 56.8767 16.7032 62.2552C21.6007 65.0519 27.1879 66.5136 32.8068 66.4946C36.4957 66.482 40.1404 65.9125 43.6522 64.8052L44.6709 64.9887C45.0759 65.0519 45.4809 65.0519 45.9048 64.9887L46.9045 64.8052C50.4163 65.9125 54.0673 66.482 57.75 66.4946H57.8702C63.4701 66.4946 68.994 65.0266 73.8536 62.2488C83.1108 56.902 89.3877 47.3664 90.6469 36.7298C90.6532 36.6349 90.6596 36.54 90.6469 36.4451C90.6469 36.3692 90.6469 36.2995 90.6469 36.2299L90.6596 36.2173ZM18.8545 58.446C18.7723 58.4017 18.69 58.37 18.6014 58.3447C8.26853 52.3083 5.35785 42.045 4.59222 38.0017C7.54718 36.9323 10.6287 36.2996 13.7735 36.1161C14.6151 39.5899 15.9375 42.9182 17.7155 46.0187C21.7652 53.0676 27.9092 58.6548 35.2492 62.0274C29.5734 62.483 23.8659 61.2491 18.8608 58.4397L18.8545 58.446ZM21.5058 43.8483C16.6272 35.3061 15.6148 25.1441 18.6837 15.8299C22.8092 16.6968 26.7007 18.266 30.2758 20.4933C26.1945 33.6863 29.0039 47.7967 37.6537 58.3511C30.8958 55.3518 25.2454 50.3024 21.4995 43.8547L21.5058 43.8483ZM45.3353 60.1354C37.4385 53.1372 32.889 43.127 32.8257 32.5663C32.889 21.993 37.4385 11.9891 45.3353 4.99717C53.2321 11.9891 57.7816 21.993 57.8449 32.5536C57.7753 43.1333 53.2258 53.1372 45.3353 60.1354ZM62.2109 32.56C62.2172 28.4597 61.6098 24.4038 60.3949 20.4933C63.9699 18.266 67.8677 16.6968 71.987 15.8299C75.0558 25.1441 74.0434 35.3125 69.1712 43.842C65.4253 50.2961 59.7748 55.3455 53.017 58.3447C58.9712 51.087 62.2109 42.0703 62.2109 32.56ZM71.8161 58.446C71.7338 58.4903 71.6579 58.5535 71.5947 58.6168C66.6402 61.344 61.0087 62.5336 55.4214 62.0843C62.7677 58.6991 68.9181 53.0929 72.9614 46.025C74.7458 42.9245 76.0682 39.5962 76.9035 36.1224C80.0293 36.3059 83.0981 36.9386 86.0405 38.008C85.4077 41.5388 82.6236 52.3272 71.8161 58.446Z" fill="url(#paint0_linear_980_217)"/>
<defs>
<linearGradient id="paint0_linear_980_217" x1="44.6349" y1="1.65051e-06" x2="12.3874" y2="71.3112" gradientUnits="userSpaceOnUse">
<stop offset="0.107536" stop-color="#BB9A65"/>
<stop offset="0.906868" stop-color="#F8F1E6"/>
</linearGradient>
</defs>
</svg>
